<?xml version="1.0" encoding="UTF-8"?>
<svg xmlns="http://www.w3.org/2000/svg" viewBox="0 0 474.45 492.99" preserveAspectRatio="xMidYMid meet" style="width: 200px; margin: 0 auto;">
  <defs>
    <style>
      .cls-1 {
        mix-blend-mode: multiply;
      }

      .cls-2 {
        isolation: isolate;
      }

      .cls-3 {
        fill: #fac630;
      }

      .cls-3, .cls-4, .cls-5, .cls-6 {
        stroke-width: 0px;
      }

      .cls-4 {
        fill: #e37532;
      }

      .cls-5 {
        fill: #fdfefe;
      }

      .cls-6 {
        fill: #040302;
      }
    </style>
  </defs>
  <g class="cls-2">
    <g id="Layer_2" data-name="Layer 2">
      <g id="katman_1" data-name="katman 1">
        <g class="cls-1">
          <path class="cls-6" d="m449.07,145.82c-16.93,2.83-33.86,5.75-50.62,9.47-13.78,3.28-27.58,6.61-41.09,10.89-13.28,3.7-26.54,7.5-39.56,12.01-7.79,2.68-15.49,5.61-23.17,8.56,3.88,16.59,8.04,33.12,11.86,49.73,3.54,15.58,6.02,31.39,9.9,46.89-6.67,1.06-13.37,2-20.08,2.8-3-12.63-6.67-25.17-12.13-36.97,5.39-8.73,10.07-18.43,10.52-28.88.22-3.45-.65-6.84-.52-10.28-.18-5.69-1.35-11.32-2.91-16.78-2-7.13-6.07-13.62-7.1-21.03-.82-7.15-.58-14.4-1.84-21.5-.99-5.77-3.31-11.22-5.94-16.42,11.58-6.89,22.47-14.99,31.96-24.58,8.42-8.52,16.25-17.59,23.98-26.73,9.71-11.63,18.26-24.26,25.23-37.73,5.57-10.86,10.46-22.14,13.72-33.93.69-2.93,1.62-5.98,1.06-9.02-.89-2.25-3.73-2.88-5.76-1.8-14.16,5.23-27.08,13.19-39.95,20.96-8.85,5.55-17.57,11.36-25.64,18.02-19.83,15.86-37.62,34.61-50.73,56.45-1.78,2.86-3.13,5.98-5.12,8.72-10.57-5.89-22.3-9.49-34.19-11.47-12.92-2.38-26.12-1.93-39.18-1.6-15.9,1.13-31.86,5.05-45.77,13.02-9.35-18.43-22.48-34.71-37.12-49.21-14-13.69-29.77-25.47-46.35-35.85C31.5,12.73,20.12,6.38,8.02,1.71,5.9,1.13,3.43-.16,1.34,1.16.28,1.89-.15,3.33.05,4.57c.64,4.45,2.02,8.75,3.39,13.02,7.93,24.02,21,46.16,36.87,65.78,5.53,6.85,11.45,13.37,17.28,19.98,5.43,5.95,11.14,11.67,17.48,16.65,6.53,5.35,13.82,9.68,21.32,13.51-3.78,6.66-6.51,14.02-7.64,21.62-.85,7.8-.33,15.79-2.43,23.43-2.59,9.21-6.82,18.01-7.98,27.59-.31,2.16.01,4.38-.49,6.52-2.78,9.35-.34,19.52,4.2,27.91,3.05,5.22,6.48,10.35,11.06,14.36-10.02,15.63-14.47,34.01-17.31,52.15-4.03,26.01-9.95,51.81-11.22,78.17-.87,13.71-1.51,27.88,2.81,41.12,4.06,11,11.09,21.41,21.52,27.22-.04.19-.11.56-.15.75-2.48,1-5.21,1.09-7.83,1.52-11.22,1.64-22.5,3.23-33.44,6.27-4.22,1.23-8.53,2.57-12.22,5.05-1.78,1.21-3.72,3.12-3.11,5.5,1.12,2.75,3.98,4.12,6.49,5.37,7.18,3.18,14.95,4.71,22.62,6.26,12.17,2.16,24.42,3.87,36.73,4.94,28.17,2.49,56.44,3.69,84.72,3.75,40.49-.02,81.18-.68,121.24-7.19,9.98-1.71,20.08-3.48,29.43-7.49,2.64-1.23,5.67-2.69,6.73-5.62.33-1.79-.83-3.43-2.15-4.49-3.53-2.82-7.91-4.25-12.16-5.59-12.55-3.65-25.56-5.37-38.49-7.05.22-.88,1.12-1.19,1.81-1.63,7.88-4.47,14.4-11.37,18.21-19.61,4.85-10.34,6.52-21.85,6.98-33.17,5.55.82,11.12,1.43,16.67,2.22,1.05.17,2.13.19,3.15-.17,0-1.5-.32-2.95-.79-4.35-3.26-10.06-6.88-19.99-10.64-29.87,13.51-3.44,27.23-6.13,40.69-9.74-5.46-13.26-11.38-26.34-17.4-39.36,7.86-1.77,15.85-2.89,23.75-4.47.28-2.15-.33-4.26-.69-6.36-4.08-20.71-7.65-41.52-11.64-62.25,8.08-.41,16.19-.35,24.28-.46,24.2.02,48.5.74,72.45,4.5.91-.02,2.04.49,2.87.09,4.98-30.55,10.36-61.06,15.11-91.66.87-5.64,1.99-11.27,2.34-16.97-8.5.84-16.94,2.23-25.38,3.52Zm-141.91,192.73c-.83-3.83-1.34-7.7-2.12-11.53,2.45.82,5.17,1.11,7.45,2.24.98,3.27,2.47,6.36,3.95,9.43-3.1.12-6.2.05-9.29-.14Z"/>
          <path class="cls-4" d="m189,262.68c-2.07,1.49-5.03,2.66-7.36,1.01-6.72-4.21-11.77-10.73-15.34-17.73l.08-.21c-1.86-2.92-1.8-7.07.58-9.69,2.65-2.94,6.66-4.04,10.37-4.95,7.27-1.3,14.91-1.51,22.07.49,2.41.83,4.94,1.81,6.74,3.69.91,1.07-.19,2.38-.46,3.5-3.34,9.2-8.53,18.15-16.67,23.87Zm102.83-46.21c.37,10.19-3.11,20.2-8.49,28.74-1.97,2.89-3.93,5.91-6.72,8.1-2.52,1.32-5.46,1.53-8.26,1.35-6.7-.76-13.12-4.38-16.86-10.04-2.43-3.78-3.81-8.24-3.83-12.74-.19-9.23,4.67-18.33,12.33-23.46,5.69-3.86,12.94-6.04,19.77-4.35,4.25,1.05,8.52,3.32,10.77,7.24,1.08,1.51,1.16,3.38,1.29,5.17Zm-211.88,10.28c-.92-4.66-.93-9.54.31-14.15.17-3.13,2.96-5.14,5.44-6.55,5.93-3.12,13.31-2.83,19.3,0,11.4,5.07,17.76,18.98,14.48,30.97-2.11,7.85-8.27,14.8-16.15,17.08-2.75.48-6.21,1.08-8.33-1.21-7.4-6.98-12.99-16.11-15.06-26.13Z"/>
          <path class="cls-5" d="m128.11,178.56c-2.97-3.48-1.39-9.77,3.27-10.77,5.36-1.78,11.56,4.59,8.77,9.84-2.1,4.67-9.12,4.89-12.04.94Zm101.97,1.45c3.9,3.02,10.48.8,11.55-4.08,1.39-4.3-2.7-8.96-7.12-8.32-2.07.22-4.11,1.14-5.43,2.79-2.34,2.77-2.11,7.49,1,9.61Z"/>
          <path class="cls-3" d="m471.93,146.73c-4.05,29.53-9.33,58.87-14.06,88.29-.82,4.7-1.44,9.44-2.29,14.14-10.54-.74-20.94-2.74-31.46-3.66-23.61-2.7-47.42-2.7-71.15-2.27.06,1.07.13,2.14.17,3.22,1,2.66,1.07,5.68,1.78,8.46,3.67,17.15,7,34.37,10.43,51.57.4,2.07.94,4.12,1.14,6.21-8.23,1.65-16.46,3.35-24.6,5.39,3.95,8.85,7.67,17.8,11.83,26.55-.76.07-1.52.08-2.26.03-10.35-1.52-20.54-4.05-30.91-5.43-1.98-3.82-2.93-8.08-4.82-11.95-.51-.62-1.37-.71-2.06-.97-3.04-.88-6.07-1.77-9.14-2.53-2.18-10.54-4.14-21.14-6.69-31.6-.33-.85-.67-1.69-1.02-2.52,7.29-1.1,14.66-1.95,22.05-1.86,1.61.3,1.7-1.8,1.46-2.84l-.04-.27c-6.52-31.4-13.86-62.63-20.5-94-.03-.7-.42-1.48-.08-2.14,1.04-.53,2.14-.94,3.22-1.41l.03.18c9.19-3.78,18.66-6.91,28.13-9.92,12.83-4.13,25.66-8.3,38.75-11.49,24.67-6.7,49.75-11.65,74.85-16.35,9.18-1.41,18.32-3.25,27.58-4.03-.1.3-.28.89-.37,1.19ZM327.64,25.27c-1.51.59-2.94,1.35-4.3,2.23-19.27,12.38-37.1,27.16-52.02,44.58-8.96,10.32-17.27,21.28-23.97,33.21-.24.32-.13.82.22,1.01,2.98,1.77,6.07,3.61,8.38,6.24-1.38-.4-2.65-1.07-3.97-1.6-10.79-5.02-21.78-9.79-33.41-12.53-15.04-3.93-30.73-4.27-46.17-3.47-14.29,1.12-28.42,4.69-41.45,10.68-4.51,1.5-8.89,3.41-13.23,5.35,1.24-2.12,3.86-2.9,5.6-4.56l.15.19c-.13-.8-.38-1.57-.78-2.27-5-9.26-10.61-18.23-17.23-26.43-12.54-16.28-28.11-29.91-44.4-42.32-4.64-3.41-9.3-6.84-14.39-9.56v-.12c-.17,0-.48-.03-.64-.04.66,8.16-1.3,16.22-1.95,24.31-1.4,6.99.56,14.01,2.41,20.72.08.06.24.19.31.25,1.3,5.97,3.93,11.6,6.61,17.06,1.5,2.94,3.08,5.84,4.86,8.62,9.61,15.07,25.27,24.58,39.59,34.62.66-.83,1.33-1.66,1.99-2.5,1.46-1.82,2.95-3.64,4.45-5.44-3.47,6.57-7.43,12.99-9.72,20.12-1.32,5.35-1.93,10.85-2.52,16.32-.46,5.5-.62,11.11-2.22,16.44-1.37,4.34-1.95,8.89-3.54,13.17-2.09,5.91-4,11.88-5.49,17.97,4.69-4.01,11-6.04,17.15-5.17,9.42,1.05,17.78,7.63,21.6,16.22,2.86,6.11,3.36,13.28,1.37,19.73-2.25,7.39-7.83,13.67-14.94,16.72-2.39.91-4.94,1.14-7.48.98,6.66,6.54,13.55,13.07,21.84,17.53-3.45-1.53-6.63-3.61-9.96-5.39-5.63-3.45-11.54-6.81-15.96-11.82-2.3,5.17-3.74,10.72-5.67,16.04-2.76,8.49-5.05,17.15-6.74,25.91-1.24,5.5-2.34,11.11-3.1,16.67-1.39,6.24-2.07,12.62-3.25,18.91-1.07,7.09-2.57,14.12-3.42,21.25-.09.42-.18.83-.26,1.25-.82,3.64-1.16,7.37-1.62,11.07-1.01,9.31-2.1,18.63-2.22,28.01-.04.6-.09,1.19-.13,1.79-.03,12.56.91,25.66,6.63,37.06,4.15,8.38,11.92,14.33,20.27,18.15,7.4,3.33,15.53,4.49,23.55,5.07,11.99.56,24.26.78,35.9-2.62,12.24-3.13,24.35-8.48,37.22-7.6,10.71.88,21.07,3.92,31.3,7.06,8.85,2.77,17.93,5.11,27.22,5.64,12.36-.28,24.98-2.43,36-8.28,3.41-1.81,10.92-6.93,16.6-16.38,4.89-8.13,6.05-15.86,7.06-22.54,1.07-7.11,1.02-13.1.77-17.24-.18-3.15-.41-6.35-.69-9.6-.86-10.12-2.09-19.77-3.59-28.91-.1-.5-.25-1.23-.4-2.13-.58-3.39-.7-5.57-.91-7.46-.19-1.79-.57-4.32-1.37-7.39-.39-4.44-1.43-8.78-2.1-13.17-1.56-8.89-2.97-17.82-5.07-26.61-.3-1.18-.48-2.43-1.08-3.5l.08-.11c-1.96-8.18-4.39-16.24-6.72-24.31-2.07-7.09-3.5-14.45-6.42-21.24-3.67,5.11-8.46,9.3-13.62,12.87-3.86,2.63-7.7,5.46-12.16,6.99,6.62-3.98,12.1-9.51,17.46-15.01-2.33.6-4.69.36-7.04.15-8.98-1.34-17.02-7.85-19.75-16.57-3.34-10.29.3-22.12,8.14-29.37,5.2-4.77,11.97-8.22,19.14-8.28,6.16-.19,12.45,2.3,16.57,6.93-1.61-8.82-4.18-17.49-7.64-25.76-2.02-5.11-3.31-10.53-3.61-16.03-.62-7.16-.19-14.46-1.96-21.48-2.37-7.93-6.33-15.29-11.02-22.08,1.44,1.73,2.86,3.49,4.52,5.02,1.01.72,1.8,3.06,3.28,2.11,5.94-3.31,11.22-7.64,16.6-11.77,8.04-6.19,16.05-12.76,21.71-21.31,1.46-2.18,2.79-4.46,4.08-6.74,2.91-5.22,5.35-10.72,7.24-16.39,2.43-6.07,3.8-12.56,4.39-19.06-.73-9.96-3.47-20.16-.96-30.07Zm-132.7,174.39c-.22,1.34-1.43,2.12-2.31,3.01-1.86,1.58-3.86,3.06-6.12,3.97-2.13-.48-3.88-1.93-5.77-2.97-1.55-1.09-3.5-1.78-4.54-3.44,5.97-2.11,12.67-2.5,18.74-.58Zm-80.99-11.54c-2.15-3.63-2.77-8.15-1.62-12.22,1.59-6.08,6.81-10.91,12.93-12.23,3.75-.73,7.81-.49,11.2,1.4,6.7,3.28,10.73,11.47,8.71,18.74-1.81,7.34-8.96,12.77-16.47,12.89-5.95-.08-11.8-3.39-14.76-8.58Zm58.64,191.45c-1.14,2.8-4.62,2.86-7.18,2.84.02,1.92.69,4.4-1.09,5.77-2.48,1.8-5.76.28-8.49,1.2-1.97,1.14-2.26,3.78-3.89,5.23-1.04.04-2.07,0-3.09-.04-10.09-2.63-19.61-7.33-27.96-13.56-8.92-6.7-16.08-15.45-22.11-24.78-2.92-4.73-5.43-9.73-7.39-14.92-2.84-8.64-3.62-17.79-4.03-26.82,2.77,10.9,5.89,21.82,10.94,31.92,4.76,10.47,11.04,20.51,19.72,28.16,7.24,6.67,16.13,11.29,25.18,15.02,2.42.98,4.9,1.8,7.44,2.41.76-1.4,1.45-2.84,2.14-4.27.78-1.34,2.29-2.66,3.94-2.02,2.04.67,4.19.9,6.33.56-.21-2.07-.82-4.06-1.16-6.1.26-1.26,1.62-3.15,3.04-2.09,1.53.99,3.35,1.17,5.14,1.01-.28-2.87-1.44-5.64-3.25-7.88.37-5.35.92-10.73.39-16.09-.84-11.77-5.45-22.89-11.02-33.15-5.12-9.48-10.92-18.61-17.54-27.11-.29-.61-.56-1.22-.83-1.82,4.66,4.87,9.28,9.79,13.53,15.04,7.19,8.58,11.82,18.99,15.41,29.51,3.26,10.33,5.45,21.59,2.47,32.26,1.8,2.88,4,6.13,3.36,9.71Zm16.09-114.77c-2.44,1.7-5.74,1.83-8.19.08-8.99-5.69-14.84-15.11-18.88-24.72-2.41-5.36-4.01-11.03-6.09-16.51-1.62-1.07-3.47-1.84-4.85-3.25,5.12,3.22,11.39,4.01,17.3,3.43,6.47-1.75,12.19-5.41,17.79-8.97,3.92,2.41,8.22,4.17,12.53,5.74,6.41,2.23,14.12,3.67,20.22-.19-1.54,1.44-3.59,2.01-5.52,2.69-2.46,6.73-4.36,13.71-7.33,20.27-3.65,8.42-9.12,16.46-16.99,21.42Zm67.41,112.64c2.79-2.18,5.79-4.22,7.95-7.09,2.59-3.41,5.21-6.8,7.56-10.39,3.31-5.03,5.32-10.75,7.61-16.27,3.52-9.25,6.3-18.78,8.43-28.43-.53,5.32-.53,10.68-1.25,15.98-1.82,11.13-5.74,22.02-12.13,31.36-3.74,5.57-7.92,10.93-13.21,15.11-9.62,7.69-20.83,13.26-32.56,16.93-1.19.06-2.44.27-3.57-.17-1.48-1.38-2.07-3.51-3.7-4.75-2.99-.74-6.27.28-9.16-1.01-2.53-1.34-1.78-4.67-1.03-6.87-2.25-.05-5.07.5-6.75-1.4-1.21-3.62,1.43-6.99,3.13-9.98-.07-2.15-1.08-4.21-1.14-6.38-1.65-16.93,4.48-33.66,13.33-47.84,6.07-8.91,13.73-16.56,21.06-24.42.46-.24.91-.48,1.37-.71-6.47,8-12.67,16.26-18.09,25.01-6.97,11.61-12.71,24.29-14.41,37.84-.66,5.96-.26,11.99.36,17.93-1.6,1.96-2.66,4.3-3.22,6.76,2.3.17,4.63.08,6.93-.19,1.49,2.5-.16,5.26-.51,7.85,3.09.39,6.21-.8,9.24-.21,1.87,1.84,3.15,4.14,4.6,6.3,10.39-3.45,20.42-8.34,29.17-14.96Zm-.91-189.89c-2.59,5.03-7.83,8.53-13.44,9.08-8.4.5-17.21-5.62-18.29-14.25-1.23-8,4.28-16.2,12.11-18.18,7.59-2.23,16.71,1.55,19.92,8.91,2.04,4.54,1.92,9.99-.3,14.44ZM122.42,466.97c-7.2,4.36-15.47,7.09-23.9,7.52,3.14-3,6.94-5.46,9.47-9-6.23,2.94-11.36,7.86-17.89,10.24-1.39.59-2.96.56-4.39.12,3.38-4.76,8.16-8.35,11.75-12.93-5.12,2.65-9.22,6.79-13.62,10.42-1,.99-2.43.21-3.61.09-.13-1.01.74-1.68,1.29-2.38,3.6-3.78,7.04-7.69,10.82-11.28-1.82.67-3.18,2.11-4.76,3.18-2.26,1.58-4.54,3.13-6.75,4.78-1.03.71-2.04,1.67-3.38,1.66-.12-2.56,1.62-4.55,3.17-6.38,2.86-3.26,6.12-6.14,9.64-8.65,1.24-.06,2.36.67,3.53.99l.03.15c6.46,2,13.06,3.62,19.82,4.16,3.83.51,7.71.42,11.56.79,1.19-.28,2.43.08,3.63.16-1.22,2.86-3.94,4.67-6.43,6.36Zm173.71.74c.86,1.5,2.14,3.18,1.55,5.01-.34.09-1.03.26-1.37.35-4.84-3.57-9.17-7.83-14.22-11.13,3.57,4.46,7.44,8.81,10.04,13.93-.76.28-1.52.56-2.27.85-3.13-1.15-5.23-3.9-7.81-5.86-2.62-1.99-5.01-4.42-8.04-5.77,2.48,2.74,5.12,5.34,7.58,8.1,1.48,1.73,3.43,3.17,4.37,5.32-2.41.74-4.9-.07-6.9-1.46-5.19-3.33-10.11-7.09-15.49-10.12,3.57,3.24,7.16,6.45,10.66,9.77-5.03-.3-9.79-2.18-14.31-4.27-4.89-2.45-9.68-5.44-13.25-9.64,3.7.1,7.42.46,11.12.13,9.3-.56,18.37-3.24,26.88-6.97,4.36,3.31,8.38,7.2,11.44,11.77Z"/>
        </g>
      </g>
    </g>
  </g>
</svg>